<svg width="1080" height="1080" viewBox="0 0 1080 1080" fill="none" xmlns="http://www.w3.org/2000/svg">
<line x1="243.296" y1="685.292" x2="428.639" y2="501.698" stroke="#EDF1F2" stroke-width="2"/>
<g filter="url(#filter0_f_441_9)">
<circle cx="432.84" cy="495.414" r="8.7426" fill="#F2B705"/>
</g>
<g filter="url(#filter1_f_441_9)">
<circle cx="432.84" cy="495.414" r="12.2396" fill="#F2B705"/>
<circle cx="432.84" cy="495.414" r="11.7396" stroke="#F2B705"/>
</g>
<path fill-rule="evenodd" clip-rule="evenodd" d="M484.918 433.993C470.724 426.328 454.476 421.976 437.212 421.976C381.686 421.976 336.672 466.99 336.672 522.516C336.672 578.043 381.686 623.056 437.212 623.056C454.476 623.056 470.724 618.705 484.918 611.039C461.504 635.674 428.421 651.033 391.751 651.033C320.773 651.033 263.234 593.494 263.234 522.516C263.234 451.539 320.773 394 391.751 394C428.421 394 461.504 409.358 484.918 433.993Z" fill="#EDF1F2"/>
<path d="M473 562C471.343 562 470 560.657 470 559V486C470 484.343 471.343 483 473 483H534.708C536.365 483 537.708 484.343 537.708 486V559C537.708 560.657 536.365 562 534.708 562H529.787C528.131 562 526.787 560.657 526.787 559V496.157C526.787 494.5 525.444 493.157 523.787 493.157H483.921C482.264 493.157 480.921 494.5 480.921 496.157V559C480.921 560.657 479.578 562 477.921 562H473Z" fill="#EDF1F2"/>
<path d="M555.997 562C554.34 562 552.997 560.657 552.997 559V486C552.997 484.343 554.34 483 555.997 483H608.969C610.625 483 611.969 484.343 611.969 486V490.157C611.969 491.814 610.625 493.157 608.969 493.157H566.918C565.261 493.157 563.918 494.5 563.918 496.157V514.421C563.918 516.078 565.261 517.421 566.918 517.421H606.784C608.441 517.421 609.784 518.765 609.784 520.421V524.579C609.784 526.235 608.441 527.579 606.784 527.579H566.918C565.261 527.579 563.918 528.922 563.918 530.579V548.843C563.918 550.5 565.261 551.843 566.918 551.843H608.969C610.625 551.843 611.969 553.186 611.969 554.843V559C611.969 560.657 610.625 562 608.969 562H555.997Z" fill="#EDF1F2"/>
<path d="M627.05 562C625.393 562 624.05 560.657 624.05 559V486C624.05 484.343 625.393 483 627.05 483H631.97C633.627 483 634.97 484.343 634.97 486V509.209C634.97 511.79 638.013 513.166 639.951 511.462L671.469 483.747C672.017 483.266 672.721 483 673.45 483H679.971C682.739 483 684.03 486.429 681.95 488.254L645.51 520.246C644.149 521.44 644.149 523.56 645.51 524.754L681.95 556.746C684.03 558.571 682.739 562 679.971 562H673.45C672.721 562 672.017 561.734 671.469 561.253L639.951 533.538C638.013 531.834 634.97 533.21 634.97 535.791V559C634.97 560.657 633.627 562 631.97 562H627.05Z" fill="#EDF1F2"/>
<path d="M721.513 562C719.856 562 718.513 560.657 718.513 559V496.157C718.513 494.5 717.17 493.157 715.513 493.157H692.027C690.371 493.157 689.027 491.814 689.027 490.157V486C689.027 484.343 690.371 483 692.027 483H755.92C757.577 483 758.92 484.343 758.92 486V490.157C758.92 491.814 757.577 493.157 755.92 493.157H732.434C730.777 493.157 729.434 494.5 729.434 496.157V559C729.434 560.657 728.091 562 726.434 562H721.513Z" fill="#EDF1F2"/>
<path d="M811.411 532.657H782.741C781.085 532.657 779.741 534 779.741 535.657V559C779.741 560.657 778.398 562 776.741 562H771.821C770.164 562 768.821 560.657 768.821 559V486C768.821 484.343 770.164 483 771.821 483H811.411C824.625 483 835 494.173 835 507.829C835 521.484 824.625 532.657 811.411 532.657ZM810.319 522.5C818.182 522.5 824.516 515.954 824.516 507.829C824.516 499.703 818.182 493.157 810.319 493.157H782.741C781.085 493.157 779.741 494.5 779.741 496.157V519.5C779.741 521.157 781.085 522.5 782.741 522.5H810.319Z" fill="#EDF1F2"/>
<path d="M658.9 462.4C654.82 462.4 651.5 459.08 651.5 455C651.5 450.92 654.82 447.6 658.9 447.6C661.28 447.6 663.4 448.72 664.76 450.48L663.42 451.58C662.3 450.32 660.68 449.44 658.86 449.44C655.8 449.44 653.5 451.9 653.5 455C653.5 458.1 655.8 460.56 658.86 460.56C660.68 460.56 662.3 459.68 663.42 458.42L664.76 459.52C663.4 461.28 661.28 462.4 658.9 462.4ZM671.465 462V449.8H666.065V448H678.865V449.8H673.465V462H671.465ZM682.213 462L685.613 456.8L679.873 448H682.113L686.733 455.08L691.353 448H693.593L684.453 462H682.213ZM691.196 464.2V460.2H691.796C692.796 460.2 693.156 459.42 693.416 458.4L695.996 448H704.596V460.2H705.796V464.2H703.796V462H693.196V464.2H691.196ZM694.936 460.2H702.596V449.8H697.596L695.336 459C695.236 459.42 695.096 459.84 694.936 460.2ZM707.903 462V448H709.903V459.08L718.703 448H720.703V462H718.703V450.92L709.903 462H707.903ZM722.694 462L727.494 456.8C725.074 456.8 723.174 454.82 723.174 452.4C723.174 449.98 725.074 448 727.494 448H735.294V462H733.294V456.8H729.994L725.194 462H722.694ZM727.694 455H733.294V449.8H727.694C726.254 449.8 725.094 450.96 725.094 452.4C725.094 453.84 726.254 455 727.694 455ZM747.105 462V448H755.145C757.325 448 759.085 449.76 759.085 451.94C759.085 453.36 758.365 454.42 757.265 455C758.365 455.58 759.085 456.64 759.085 458.06C759.085 460.24 757.325 462 755.145 462H747.105ZM749.105 460.2H754.945C756.145 460.2 757.165 459.26 757.165 458.06C757.165 456.86 756.145 455.9 754.945 455.9H749.105V460.2ZM754.945 449.8H749.105V454.1H754.945C756.145 454.1 757.165 453.14 757.165 451.94C757.165 450.74 756.145 449.8 754.945 449.8ZM768.29 462.4C764.21 462.4 760.89 459.08 760.89 455C760.89 450.92 764.21 447.6 768.29 447.6C772.37 447.6 775.69 450.92 775.69 455C775.69 459.08 772.37 462.4 768.29 462.4ZM762.89 455C762.89 458.1 765.19 460.56 768.29 460.56C771.39 460.56 773.69 458.1 773.69 455C773.69 451.9 771.39 449.44 768.29 449.44C765.19 449.44 762.89 451.9 762.89 455ZM777.895 462V448H779.895V453.82L786.735 448H789.595L781.355 455L789.595 462H786.735L779.895 456.18V462H777.895ZM801.805 462L800.505 459H793.005L791.705 462H789.605L795.705 448H797.805L803.905 462H801.805ZM793.805 457.2H799.705L796.765 450.4L793.805 457.2ZM804.707 462V460.2H805.307C806.307 460.2 806.667 459.42 806.927 458.4L809.507 448H818.107V462H816.107V449.8H811.107L808.847 459C808.427 460.68 807.627 462 805.707 462H804.707ZM832.126 462L830.826 459H823.326L822.026 462H819.926L826.026 448H828.126L834.226 462H832.126ZM824.126 457.2H830.026L827.086 450.4L824.126 457.2Z" fill="#EDF1F2"/>
<path d="M522.3 599V585H534.7V599H532.7V586.8H524.3V599H522.3ZM545.7 593.8H539.9V599H537.9V585H545.7C548.12 585 550.02 586.98 550.02 589.4C550.02 591.82 548.12 593.8 545.7 593.8ZM545.5 592C546.94 592 548.1 590.84 548.1 589.4C548.1 587.96 546.94 586.8 545.5 586.8H539.9V592H545.5ZM559.006 599.4C554.926 599.4 551.606 596.08 551.606 592C551.606 587.92 554.926 584.6 559.006 584.6C563.086 584.6 566.406 587.92 566.406 592C566.406 596.08 563.086 599.4 559.006 599.4ZM553.606 592C553.606 595.1 555.906 597.56 559.006 597.56C562.106 597.56 564.406 595.1 564.406 592C564.406 588.9 562.106 586.44 559.006 586.44C555.906 586.44 553.606 588.9 553.606 592ZM567.607 599L572.407 593.8C569.987 593.8 568.087 591.82 568.087 589.4C568.087 586.98 569.987 585 572.407 585H580.207V599H578.207V593.8H574.907L570.107 599H567.607ZM572.607 592H578.207V586.8H572.607C571.167 586.8 570.007 587.96 570.007 589.4C570.007 590.84 571.167 592 572.607 592ZM583.411 599V585H591.451C593.631 585 595.391 586.76 595.391 588.94C595.391 590.36 594.671 591.42 593.571 592C594.671 592.58 595.391 593.64 595.391 595.06C595.391 597.24 593.631 599 591.451 599H583.411ZM585.411 597.2H591.251C592.451 597.2 593.471 596.26 593.471 595.06C593.471 593.86 592.451 592.9 591.251 592.9H585.411V597.2ZM591.251 586.8H585.411V591.1H591.251C592.451 591.1 593.471 590.14 593.471 588.94C593.471 587.74 592.451 586.8 591.251 586.8ZM596.205 599V597.2H596.805C597.805 597.2 598.165 596.42 598.425 595.4L601.005 585H609.605V599H607.605V586.8H602.605L600.345 596C599.925 597.68 599.125 599 597.205 599H596.205ZM611.614 599L616.414 593.8C613.994 593.8 612.094 591.82 612.094 589.4C612.094 586.98 613.994 585 616.414 585H624.214V599H622.214V593.8H618.914L614.114 599H611.614ZM616.614 592H622.214V586.8H616.614C615.174 586.8 614.014 587.96 614.014 589.4C614.014 590.84 615.174 592 616.614 592ZM627.418 599V585H629.418V596.08L638.218 585H640.218V599H638.218V587.92L629.418 599H627.418ZM636.718 581.08L637.818 582C637.078 583.1 635.678 584 633.818 584C631.958 584 630.558 583.1 629.818 582L630.918 581.08C631.478 581.66 632.418 582.3 633.818 582.3C635.218 582.3 636.158 581.66 636.718 581.08ZM649.813 599.4C645.733 599.4 642.413 596.08 642.413 592C642.413 587.92 645.733 584.6 649.813 584.6C652.193 584.6 654.313 585.72 655.673 587.48L654.333 588.58C653.213 587.32 651.593 586.44 649.773 586.44C646.713 586.44 644.413 588.9 644.413 592C644.413 595.1 646.713 597.56 649.773 597.56C651.593 597.56 653.213 596.68 654.333 595.42L655.673 596.52C654.313 598.28 652.193 599.4 649.813 599.4ZM656.969 599L661.769 593.8C659.349 593.8 657.449 591.82 657.449 589.4C657.449 586.98 659.349 585 661.769 585H669.569V599H667.569V593.8H664.269L659.469 599H656.969ZM661.969 592H667.569V586.8H661.969C660.529 586.8 659.369 587.96 659.369 589.4C659.369 590.84 660.529 592 661.969 592ZM681.38 599V585H689.42C691.6 585 693.36 586.76 693.36 588.94C693.36 590.36 692.64 591.42 691.54 592C692.64 592.58 693.36 593.64 693.36 595.06C693.36 597.24 691.6 599 689.42 599H681.38ZM683.38 597.2H689.22C690.42 597.2 691.44 596.26 691.44 595.06C691.44 593.86 690.42 592.9 689.22 592.9H683.38V597.2ZM689.22 586.8H683.38V591.1H689.22C690.42 591.1 691.44 590.14 691.44 588.94C691.44 587.74 690.42 586.8 689.22 586.8ZM704.573 599V585H706.573L712.573 595.04L718.553 585H720.553V599H718.553V588.52L713.493 597H711.633L706.573 588.52V599H704.573ZM734.556 599L733.256 596H725.756L724.456 599H722.356L728.456 585H730.556L736.656 599H734.556ZM726.556 594.2H732.456L729.516 587.4L726.556 594.2ZM744.267 599.4C740.187 599.4 736.867 596.08 736.867 592C736.867 587.92 740.187 584.6 744.267 584.6C746.647 584.6 748.767 585.72 750.127 587.48L748.787 588.58C747.667 587.32 746.047 586.44 744.227 586.44C741.167 586.44 738.867 588.9 738.867 592C738.867 595.1 741.167 597.56 744.227 597.56C746.047 597.56 747.667 596.68 748.787 595.42L750.127 596.52C748.767 598.28 746.647 599.4 744.267 599.4ZM759.027 599.4C754.947 599.4 751.627 596.08 751.627 592C751.627 587.92 754.947 584.6 759.027 584.6C761.407 584.6 763.527 585.72 764.887 587.48L763.547 588.58C762.427 587.32 760.807 586.44 758.987 586.44C755.927 586.44 753.627 588.9 753.627 592C753.627 595.1 755.927 597.56 758.987 597.56C760.807 597.56 762.427 596.68 763.547 595.42L764.887 596.52C763.527 598.28 761.407 599.4 759.027 599.4ZM767.187 599V585H769.187V590.2H774.987C777.407 590.2 779.307 592.18 779.307 594.6C779.307 597.02 777.407 599 774.987 599H767.187ZM774.787 597.2C776.227 597.2 777.387 596.04 777.387 594.6C777.387 593.16 776.227 592 774.787 592H769.187V597.2H774.787ZM780.187 599V585H782.187V599H780.187Z" fill="#EDF1F2"/>
<defs>
<filter id="filter0_f_441_9" x="423.498" y="486.072" width="18.6854" height="18.6852" filterUnits="userSpaceOnUse" color-interpolation-filters="sRGB">
<feFlood flood-opacity="0" result="BackgroundImageFix"/>
<feBlend mode="normal" in="SourceGraphic" in2="BackgroundImageFix" result="shape"/>
<feGaussianBlur stdDeviation="0.3" result="effect1_foregroundBlur_441_9"/>
</filter>
<filter id="filter1_f_441_9" x="408.201" y="470.775" width="49.2795" height="49.2792" filterUnits="userSpaceOnUse" color-interpolation-filters="sRGB">
<feFlood flood-opacity="0" result="BackgroundImageFix"/>
<feBlend mode="normal" in="SourceGraphic" in2="BackgroundImageFix" result="shape"/>
<feGaussianBlur stdDeviation="6.2" result="effect1_foregroundBlur_441_9"/>
</filter>
</defs>
</svg>
